<svg height="20" viewBox="0 0 19 20" width="19" xmlns="http://www.w3.org/2000/svg"><path d="m29 3h14.8235294c1.1045695 0 2 .8954305 2 2v16c0 1.1045695-.8954305 2-2 2h-14.8235294c-1.1045695 0-2-.8954305-2-2v-16c0-1.1045695.8954305-2 2-2zm7.2748948 4.5259979c-.0880945-.20220689-.214489-.38094066-.3791873-.53620667-.3217363-.30692118-.706665-.46037947-1.1547977-.46037947-.2451324 0-.4778132.05055097-.6980493.15165442-.2202362.10110344-.4107855.24372938-.5716536.42788209-.1608681-.18415271-.3514174-.32677865-.5716536-.42788209-.2202361-.10110345-.4529169-.15165442-.6980493-.15165442-.4481327 0-.8330614.15526368-1.1547977.4657957-.1646983.15526601-.2910928.33399977-.3791873.53620667-.0957548.2130394-.1417165.43329718-.1378863.66077994.0038302.24914777.0593672.48475138.1666126.70681788.1072455.2220665.2585359.41072992.4538757.56599593.019151.01444335.0363866.02888648.0517074.04332983.0536227.04333005.2700254.22747999.6492146.55245539.7966803.6896699 1.2888528 1.1139369 1.4765323 1.2728138.0421322.0324975.0900089.048746.1436316.048746s.1014994-.0162485.1436315-.048746c.1263964-.1083251.4730238-.4062148 1.0398925-.8936778.6051706-.51996059.980524-.84312568 1.1260713-.96950499.1991701-.15526601.3542906-.34483213.4653663-.56870405.1110756-.22387191.1666126-.46218361.1666126-.71494222 0-.2310936-.0459617-.45135137-.1378863-.66077994zm-4.5690124 8.8269433h9.4117647c.6497467 0 1.1764705-.5267238 1.1764705-1.1764706s-.5267238-1.1764706-1.1764705-1.1764706h-9.4117647c-.6497468 0-1.1764706.5267238-1.1764706 1.1764706s.5267238 1.1764706 1.1764706 1.1764706zm0 3.7058823h9.4117647c.6497467 0 1.1764705-.5267238 1.1764705-1.1764706 0-.6497467-.5267238-1.1764705-1.1764705-1.1764705h-9.4117647c-.6497468 0-1.1764706.5267238-1.1764706 1.1764705 0 .6497468.5267238 1.1764706 1.1764706 1.1764706z" fill="#b8b8b8" fill-rule="evenodd" transform="translate(-27 -3)"/></svg>