<svg height="17" viewBox="0 0 20 17" width="20" xmlns="http://www.w3.org/2000/svg"><path d="m46 15v15c0 .5522847-.4477153 1-1 1h-18c-.5522847 0-1-.4477153-1-1v-15c0-.5522847.4477153-1 1-1h18c.5522847 0 1 .4477153 1 1zm-4.2901487 3.1191104-5.4749914 3.9423357-5.6662088-4.0018162c-.4511186-.318607-1.0751046-.2111851-1.3937116.2399335-.318607.4511187-.2111851 1.0751046.2399336 1.3937116l6.2487165 4.413218c.3485612.2461748.8149329.2440413 1.1612272-.0053122l6.0537107-4.3590498c.4481847-.322721.5498932-.9476636.2271722-1.3958484-.322721-.4481847-.9476637-.5498932-1.3958484-.2271722z" fill="#b8b8b8" fill-rule="evenodd" transform="translate(-26 -14)"/></svg>