<svg height="21" viewBox="0 0 21 21" width="21" xmlns="http://www.w3.org/2000/svg"><path d="m185.770508 12.4150391c1.613289.9296921 2.888179 2.2011638 3.824707 3.8144531s1.404785 3.3701077 1.404785 5.2705078-.468257 3.6572185-1.404785 5.2705078-2.211418 2.8881789-3.824707 3.824707c-1.61329.9365282-3.370108 1.4047852-5.270508 1.4047852s-3.657218-.468257-5.270508-1.4047852c-1.613289-.9365281-2.888179-2.2114177-3.824707-3.824707s-1.404785-3.3701077-1.404785-5.2705078.468257-3.6572185 1.404785-5.2705078 2.211418-2.8881789 3.824707-3.824707c1.61329-.9365282 3.370108-1.4047852 5.270508-1.4047852s3.657218.471675 5.270508 1.4150391zm-1.066406 12.2636718-3.158204-3.1787109 3.158204-3.1787109c.150391-.1503914.225586-.3247061.225586-.5229493 0-.1982431-.071777-.3691399-.215333-.5126953-.143555-.1435554-.31787-.215332-.522949-.215332s-.382811.0683587-.533203.2050781l-3.158203 3.178711-3.158203-3.178711c-.150392-.1367194-.328124-.2050781-.533203-.2050781s-.379394.0717766-.522949.215332c-.143556.1435554-.215333.3178701-.215333.5229493 0 .2050791.075195.3759758.225586.5126953l3.158204 3.1787109-3.158204 3.1787109c-.150391.1367195-.225586.3076162-.225586.5126953 0 .2050792.071777.3793939.215333.5229493.143555.1435554.31787.215332.522949.215332s.382811-.0683587.533203-.2050781l3.158203-3.178711 3.158203 3.178711c.150392.1367194.328124.2050781.533203.2050781s.379394-.0717766.522949-.215332c.143556-.1435554.215333-.3178701.215333-.5229493 0-.2050791-.075195-.3759758-.225586-.5126953z" fill="#b8b8b8" fill-rule="evenodd" transform="matrix(-.70710678 -.70710678 .70710678 -.70710678 122.929978 153.33557)"/></svg>